<?xml version="1.0" encoding="utf-8"?>
<!-- Generator: Adobe Illustrator 25.2.1, SVG Export Plug-In . SVG Version: 6.00 Build 0)  -->
<svg version="1.1" id="art" xmlns="http://www.w3.org/2000/svg" xmlns:xlink="http://www.w3.org/1999/xlink" x="0px" y="0px"
	 viewBox="0 0 3790.5 2124.4" style="enable-background:new 0 0 3790.5 2124.4;" xml:space="preserve">
<style type="text/css">
	.st0{fill:#9F9F9F;}
	.st1{fill:#010101;}
	.st2{fill:#366CAE;}
	.st3{fill:#46AED7;}
	.st4{fill:#0EA54C;}
	.st5{fill:#ED4424;}
	.st6{fill:#E2BA35;}
</style>
<g>
	<polygon class="st0" points="2015.2,2073.4 1426.7,1048.8 1990,51 3144.2,51 3731.8,1077.2 3165.5,2073.4 	"/>
	<path class="st1" d="M3139,60l582.5,1017.2l-561.2,987.2H2020.5L1437,1048.8L1995.3,60H3139 M3149.4,42H3139H1995.3h-10.5l-5.2,9.2
		l-558.3,988.8l-5,8.9l5.1,8.9l583.4,1015.6l5.2,9h10.4h1139.8h10.5l5.2-9.1l561.2-987.2l5.1-8.9l-5.1-8.9L3154.6,51.1L3149.4,42
		L3149.4,42z"/>
</g>
<g>
	<polygon class="st2" points="1741.6,2073.4 1153.1,1048.8 1716.4,51 2870.6,51 3458.2,1077.2 2891.9,2073.4 	"/>
	<path class="st1" d="M2865.4,60l582.5,1017.2l-561.2,987.2H1746.9l-583.4-1015.6L1721.7,60H2865.4 M2875.8,42h-10.4H1721.7h-10.5
		l-5.2,9.2l-558.3,988.8l-5,8.9l5.1,8.9l583.4,1015.6l5.2,9h10.4h1139.8h10.5l5.2-9.1l561.2-987.2l5.1-8.9l-5.1-8.9L2881,51.1
		L2875.8,42L2875.8,42z"/>
</g>
<g>
	<polygon class="st3" points="1468.1,2073.4 879.5,1048.8 1442.8,51 2597,51 3184.6,1077.2 2618.3,2073.4 	"/>
	<path class="st1" d="M2591.8,60l582.5,1017.2l-561.2,987.2H1473.3L889.8,1048.8L1448.1,60H2591.8 M2602.2,42h-10.4H1448.1h-10.5
		l-5.2,9.2l-558.3,988.8l-5,8.9l5.1,8.9l583.4,1015.6l5.2,9h10.4h1139.8h10.5l5.2-9.1l561.2-987.2l5.1-8.9l-5.1-8.9L2607.4,51.1
		L2602.2,42L2602.2,42z"/>
</g>
<g>
	<polygon class="st4" points="1194.5,2073.4 605.9,1048.8 1169.2,51 2323.4,51 2911,1077.2 2344.7,2073.4 	"/>
	<path class="st1" d="M2318.2,60l582.5,1017.2l-561.2,987.2H1199.7L616.2,1048.8L1174.5,60H2318.2 M2328.6,42h-10.4H1174.5H1164
		l-5.2,9.2l-558.3,988.8l-5,8.9l5.1,8.9l583.4,1015.6l5.2,9h10.4h1139.8h10.5l5.2-9.1l561.2-987.2l5.1-8.9l-5.1-8.9L2333.8,51.1
		L2328.6,42L2328.6,42z"/>
</g>
<g>
	<polygon class="st5" points="920.9,2073.4 332.3,1048.8 895.6,51 2049.8,51 2637.4,1077.2 2071.1,2073.4 	"/>
	<path class="st1" d="M2044.6,60l582.5,1017.2l-561.2,987.2H926.1L342.6,1048.8L900.9,60H2044.6 M2055,42h-10.4H900.9h-10.5
		l-5.2,9.2L327,1039.9l-5,8.9l5.1,8.9l583.4,1015.6l5.2,9h10.4h1139.8h10.5l5.2-9.1l561.2-987.2l5.1-8.9l-5.1-8.9L2060.2,51.1
		L2055,42L2055,42z"/>
</g>
<g>
	<polygon class="st6" points="647.3,2073.4 58.7,1048.8 622.1,51 1776.2,51 2363.8,1077.2 1797.5,2073.4 	"/>
	<path class="st1" d="M1771,60l582.5,1017.2l-561.2,987.2H652.5L69,1048.8L627.3,60H1771 M1781.4,42H1771H627.3h-10.5l-5.2,9.2
		L53.4,1039.9l-5,8.9l5.1,8.9l583.4,1015.6l5.2,9h10.4h1139.8h10.5l5.2-9.1l561.2-987.2l5.1-8.9l-5.1-8.9L1786.6,51.1L1781.4,42
		L1781.4,42z"/>
</g>
<g>
	<path class="st1" d="M1264.6,825.4c-26.2,0-61.6-30.7-88-76.5c-15-25.9-24.7-52.8-27.4-75.6c-2.9-24.4,2.6-41.9,15.4-49.3
		c4.2-2.4,8.9-3.6,14.1-3.6c26.2,0,61.6,30.8,88,76.5c14.6,25.3,24.2,51.9,27.1,75c3.1,24.8-2.2,42.5-15,49.9
		C1274.6,824.2,1269.8,825.4,1264.6,825.4z"/>
	<path class="st1" d="M1178.7,625.2c23.8,0,58.2,29.8,83.8,74.1c29.2,50.6,36.7,105,13.9,118.2c-3.5,2-7.5,3-11.7,3
		c-23.9,0-58.2-29.8-83.8-74.1c-30.2-52.2-36.7-105-13.8-118.3C1170.5,626.2,1174.4,625.2,1178.7,625.2 M1178.7,615.5v9.7V615.5
		c-6.1,0-11.6,1.4-16.5,4.3c-14.6,8.4-21,27.7-17.8,54.1c2.8,23.5,12.8,51,28,77.5c13,22.5,28.4,41.9,44.5,56.1
		c17,15,33.5,22.9,47.7,22.9c6.1,0,11.7-1.4,16.6-4.3c14.5-8.4,20.7-27.8,17.4-54.7c-2.9-23.7-12.8-51-27.7-76.8
		c-13-22.5-28.4-41.9-44.6-56.1C1209.3,623.4,1192.8,615.5,1178.7,615.5L1178.7,615.5z"/>
</g>
<g>
	<path class="st1" d="M995.9,981.7c-20.1,0-56-24.5-87-78.3c-15.7-27.1-26-54.5-29.1-77c-3.1-22.7,1.2-38.7,12.1-45
		c3.2-1.9,7-2.8,11.2-2.8c24.4,0,59,31.5,86.1,78.5c15.4,26.7,25.5,54.2,28.5,77.4c2.8,22.5-1.4,38.8-11.6,44.7
		C1003.2,980.8,999.8,981.7,995.9,981.7z"/>
	<path class="st1" d="M903.1,783.4c20.2,0,53.5,26.9,81.9,76.1c33,57.1,35.1,106,18.7,115.5c-2.2,1.2-4.8,1.9-7.7,1.9
		c-19.4,0-54.2-26.3-82.8-75.8c-33-57.1-36.7-105-18.8-115.4C896.9,784.1,899.8,783.4,903.1,783.4 M903.1,773.7L903.1,773.7
		L903.1,773.7c-5,0-9.6,1.2-13.6,3.5c-12.8,7.4-17.9,25.1-14.5,49.9c3.2,23.2,13.7,51.1,29.7,78.8c13.8,23.9,30,44.3,46.9,59
		c16.1,14,31.9,21.7,44.3,21.7c4.7,0,9-1.1,12.6-3.2c12.1-7,17.1-24.6,13.9-49.5c-3-23.8-13.3-52-29.1-79.3
		c-13.9-24-29.8-44.4-46-58.9C931.3,781.3,915.9,773.7,903.1,773.7L903.1,773.7z"/>
</g>
<g>
	<path class="st1" d="M1218,1488.1c-79,0-158.2-20.9-229-60.3c-72.8-40.6-134.6-99.8-178.7-171.2l-2.6-4.3l33-19l2.5,4.1
		c39.7,66.4,96,121.4,162.6,159.2c64.9,36.8,137.7,56.2,210.6,56.2c70.4,0,139.6-18.5,200.1-53.4c48.1-27.8,89.3-64.5,122.3-109.2
		c31.9-43.2,55-91.9,68.5-144.9c13.5-53,16.8-107.6,9.7-162.2c-7.3-56.6-25.5-110.8-54.1-161.2l-2.4-4.2l33-19l2.4,4.3
		c30.4,54.5,49.7,113.3,57.4,174.7c7.4,59.4,3.7,118.7-11,176.2c-14.7,57.7-39.8,110.7-74.5,157.7c-36,48.7-80.8,88.7-133.2,119
		C1369.3,1468.2,1294.5,1488.1,1218,1488.1C1218.1,1488.1,1218.1,1488.1,1218,1488.1z"/>
	<path class="st1" d="M1591.5,805.4c123,220.7,52.7,498.5-159.5,621c-66.8,38.5-140.4,56.8-213.9,56.8
		c-156.7,0-313.3-82.9-403.6-229.2l24.5-14.1c83.1,138.8,229.5,217.7,377.3,217.7c69.3,0,139-17.4,202.5-54.1
		c199.2-115,266.2-375.7,148.2-584L1591.5,805.4 M1595.2,792l-8.6,4.9l-24.5,14.1l-8.4,4.8l4.8,8.4c28.2,49.8,46.2,103.4,53.5,159.4
		c7,54,3.8,108-9.6,160.4c-13.3,52.3-36.1,100.5-67.7,143.2c-32.6,44.1-73.3,80.4-120.8,107.8c-30.4,17.6-62.9,31-96.7,39.8
		c-32.7,8.6-66.7,12.9-101,12.9c-72,0-144-19.2-208.2-55.6c-65.9-37.3-121.5-91.8-160.8-157.4l-4.9-8.2l-8.3,4.8l-24.5,14.1l-8.7,5
		l5.3,8.5c22.6,36.6,49.7,70.1,80.7,99.5c30.1,28.6,63.6,53.2,99.8,73.4c71.6,39.9,151.6,61,231.4,61c38,0,75.7-4.8,112-14.3
		c37.4-9.8,73.3-24.5,106.8-43.8c53-30.6,98.3-71.1,134.7-120.3c35.1-47.5,60.4-101.1,75.3-159.4c14.9-58.2,18.6-118.1,11.1-178
		c-7.8-62-27.3-121.4-58-176.4L1595.2,792L1595.2,792z"/>
</g>
</svg>
