<?xml version="1.0" encoding="utf-8"?>
<!-- Generator: Adobe Illustrator 25.2.1, SVG Export Plug-In . SVG Version: 6.00 Build 0)  -->
<svg version="1.1" id="art" xmlns="http://www.w3.org/2000/svg" xmlns:xlink="http://www.w3.org/1999/xlink" x="0px" y="0px"
	 viewBox="0 0 5748 2607.3" style="enable-background:new 0 0 5748 2607.3;" xml:space="preserve">
<style type="text/css">
	.st0{fill:none;stroke:#000000;stroke-width:11.8446;stroke-linejoin:round;stroke-miterlimit:10;}
	.st1{fill:#E2BA35;stroke:#000000;stroke-width:11.8446;stroke-linejoin:round;stroke-miterlimit:10;}
	.st2{fill:#ED4424;stroke:#000000;stroke-width:11.8446;stroke-linejoin:round;stroke-miterlimit:10;}
	.st3{fill:#0EA54C;stroke:#000000;stroke-width:11.8446;stroke-linejoin:round;stroke-miterlimit:10;}
	.st4{fill:#46AED7;stroke:#000000;stroke-width:11.8446;stroke-linejoin:round;stroke-miterlimit:10;}
	.st5{fill:#366CAE;stroke:#000000;stroke-width:11.8446;stroke-linejoin:round;stroke-miterlimit:10;}
	.st6{fill:#636890;stroke:#000000;stroke-width:11.8446;stroke-linejoin:round;stroke-miterlimit:10;}
	.st7{fill:#F6CECF;stroke:#010101;stroke-width:1.1845;stroke-linejoin:round;stroke-miterlimit:10;}
	.st8{fill:#010101;stroke:#010101;stroke-width:1.1845;stroke-linejoin:round;stroke-miterlimit:10;}
	.st9{fill:#366CAE;stroke:#010101;stroke-width:1.1845;stroke-linejoin:round;stroke-miterlimit:10;}
	.st10{fill:#FEE1C5;stroke:#010101;stroke-width:1.1845;stroke-linejoin:round;stroke-miterlimit:10;}
	.st11{fill:#E2BA35;stroke:#010101;stroke-width:1.1845;stroke-linejoin:round;stroke-miterlimit:10;}
	.st12{fill:#ED4424;stroke:#010101;stroke-width:1.1845;stroke-linejoin:round;stroke-miterlimit:10;}
	.st13{fill:#E01E2F;stroke:#010101;stroke-width:1.1845;stroke-linejoin:round;stroke-miterlimit:10;}
	.st14{fill:#D9DBDA;stroke:#000000;stroke-width:11.8446;stroke-linejoin:round;stroke-miterlimit:10;}
	.st15{fill:#D4E7DB;stroke:#000000;stroke-width:11.8446;stroke-linejoin:round;stroke-miterlimit:10;}
	.st16{fill:#9F9F9F;stroke:#000000;stroke-width:11.8446;stroke-linejoin:round;stroke-miterlimit:10;}
	.st17{fill:#8BCFB6;stroke:#000000;stroke-width:11.8446;stroke-linejoin:round;stroke-miterlimit:10;}
	.st18{fill:#2F8AA4;stroke:#000000;stroke-width:11.8446;stroke-linejoin:round;stroke-miterlimit:10;}
	.st19{fill:#D9DBDA;stroke:#010101;stroke-width:11.5304;stroke-linejoin:round;stroke-miterlimit:10;}
	.st20{fill:#FEE1C5;stroke:#010101;stroke-width:16.5825;stroke-linejoin:round;stroke-miterlimit:10;}
	.st21{fill:#2F8AA4;stroke:#010101;stroke-width:11.5304;stroke-linejoin:round;stroke-miterlimit:10;}
	.st22{fill:#FEE1C5;stroke:#010101;stroke-width:11.5304;stroke-linejoin:round;stroke-miterlimit:10;}
	.st23{fill:#ED4424;stroke:#010101;stroke-width:16.5825;stroke-linejoin:round;stroke-miterlimit:10;}
	.st24{fill:#0EA54C;stroke:#010101;stroke-width:11.5304;stroke-linejoin:round;stroke-miterlimit:10;}
	.st25{fill:#F6CECF;stroke:#010101;stroke-width:11.5304;stroke-linejoin:round;stroke-miterlimit:10;}
	.st26{fill:none;stroke:#010101;stroke-width:14.046;stroke-linejoin:round;stroke-miterlimit:10;}
	.st27{fill:#ED4424;stroke:#010101;stroke-width:11.5304;stroke-linejoin:round;stroke-miterlimit:10;}
	.st28{fill:#E2BA35;stroke:#000000;stroke-width:11.5304;stroke-linejoin:round;stroke-miterlimit:10;}
	.st29{fill:#ED4424;stroke:#000000;stroke-width:11.5304;stroke-linejoin:round;stroke-miterlimit:10;}
	.st30{fill:#0EA54C;stroke:#000000;stroke-width:11.5304;stroke-linejoin:round;stroke-miterlimit:10;}
	.st31{fill:#46AED7;stroke:#000000;stroke-width:11.5304;stroke-linejoin:round;stroke-miterlimit:10;}
	.st32{fill:#366CAE;stroke:#000000;stroke-width:11.5304;stroke-linejoin:round;stroke-miterlimit:10;}
	.st33{fill:#010101;}
	.st34{fill:#F5C32C;}
	.st35{fill-rule:evenodd;clip-rule:evenodd;fill:#010101;}
	.st36{fill:#FFFFFF;}
	.st37{fill:#9F9F9F;stroke:#010101;stroke-width:1.1845;stroke-linejoin:round;stroke-miterlimit:10;}
	.st38{fill:#636890;stroke:#010101;stroke-width:11.5304;stroke-linejoin:round;stroke-miterlimit:10;}
	.st39{fill:#FFFFFF;stroke:#010101;stroke-width:1.1845;stroke-linejoin:round;stroke-miterlimit:10;}
	.st40{fill:#D9DBDA;stroke:#010101;stroke-width:1.1845;stroke-linejoin:round;stroke-miterlimit:10;}
	.st41{fill:#46AED7;stroke:#010101;stroke-width:1.1845;stroke-linejoin:round;stroke-miterlimit:10;}
	.st42{fill:#0B864D;stroke:#010101;stroke-width:1.1845;stroke-linejoin:round;stroke-miterlimit:10;}
	.st43{fill:#8BCFB6;stroke:#010101;stroke-width:11.5304;stroke-linejoin:round;stroke-miterlimit:10;}
	.st44{fill:#0B864D;stroke:#010101;stroke-width:11.5304;stroke-linejoin:round;stroke-miterlimit:10;}
	.st45{fill:#010101;stroke:#010101;stroke-width:3.8435;stroke-linejoin:round;}
	.st46{fill:#ED4424;}
	.st47{fill:#010101;stroke:#010101;stroke-width:4.7379;stroke-linejoin:round;stroke-miterlimit:10;}
	.st48{fill:#010101;stroke:#010101;stroke-width:3.5534;stroke-linejoin:round;stroke-miterlimit:10;}
	.st49{fill:#E1B932;stroke:#010101;stroke-width:3.5534;stroke-linejoin:round;}
	.st50{fill:#FFFFFF;stroke:#010101;stroke-width:3.5534;stroke-linejoin:round;}
	.st51{fill:none;stroke:#010101;stroke-width:2.3689;stroke-linejoin:round;}
</style>
<path class="st0" d="M5733,1148.7c0-157.5-127.6-285.1-285.1-285.1c-17.9,0-35.4,1.7-52.4,4.8c-74.1-79.2-179.9-128.8-297.2-128.8
	c-183.6,0-338.9,121.4-388.9,287.6h-458.8v95.9v95.9v95.9v95.9v95.9v95.9h641c35.4,148.9,169.2,259.6,328.9,259.6
	c186.7,0,338-151.3,338-338c0-37-6-72.6-17-106C5653,1379.3,5733,1273.4,5733,1148.7z"/>
<g>
	<rect x="4250.6" y="1027.2" class="st1" width="1019.6" height="95.9"/>
	<rect x="4250.6" y="1123.1" class="st2" width="1019.6" height="95.9"/>
	<rect x="4250.6" y="1219" class="st3" width="1019.6" height="95.9"/>
	<rect x="4250.6" y="1314.9" class="st4" width="1019.6" height="95.9"/>
	<rect x="4250.6" y="1410.7" class="st5" width="1019.6" height="95.9"/>
	<rect x="4250.6" y="1506.6" class="st6" width="1019.6" height="95.9"/>
</g>
<g>
	<g>
		<g>
			
				<ellipse transform="matrix(0.7071 -0.7071 0.7071 0.7071 682.0209 3938.8625)" class="st7" cx="5095.6" cy="1146.2" rx="399.9" ry="399.9"/>
			<path class="st8" d="M5095.8,1550.1c-222.7,0-404.2-181.1-404.2-404.2c0-222.7,181.1-404.2,404.2-404.2
				c222.7,0,404.2,181.1,404.2,404.2S5318.8,1550.1,5095.8,1550.1z M5095.8,750.7c-218,0-395.7,177.3-395.7,395.7
				c0,218,177.3,395.7,395.7,395.7c218,0,395.7-177.3,395.7-395.7S5314.2,750.7,5095.8,750.7z"/>
		</g>
	</g>
	<g>
		<g>
			<path class="st9" d="M5050.4,749.8c-199.8,25.9-353.7,193.4-353.7,396.1c0,203.1,154,370.7,353.7,396.1V749.8z"/>
			<path class="st8" d="M5054.6,1547.1l-4.7-0.4c-203.6-26.3-357.1-198.5-357.1-400.4S4846.4,772.3,5050,746l4.7-0.4V1547.1z
				 M5046.1,754.9c-197.2,27.6-345.2,195.1-345.2,391.5s148,363.5,345.2,391.5V754.9z"/>
		</g>
	</g>
	<g>
		<g>
			<path class="st8" d="M4716.6,1207.4c0-3.8,0-7.6,0-11.5c0-181.9,148-330,330-330c59.8,0,118.8,16.1,169.6,47.1l-4.2,7.2
				c-49.6-30.1-106.9-45.8-165.4-45.8c-177.3,0-321.5,144.2-321.5,321.5c0,3.8,0,7.6,0,11.5H4716.6z"/>
		</g>
	</g>
	<g>
		<g>
			<g>
				<g>
					<ellipse class="st10" cx="5098.3" cy="1142.5" rx="401.6" ry="398.7"/>
					<path class="st8" d="M5098.3,1545.4c-223.9,0-405.9-180.7-405.9-402.9s181.9-402.9,405.9-402.9
						c223.9,0,405.9,180.7,405.9,402.9S5322.2,1545.4,5098.3,1545.4z M5098.3,747.7c-219.3,0-397.4,176.9-397.4,394.4
						c0,217.6,178.1,394.4,397.4,394.4c219.3,0,397.4-176.9,397.4-394.4S5317.6,747.7,5098.3,747.7z"/>
				</g>
			</g>
			<g>
				<g>
					<ellipse class="st11" cx="5098.3" cy="1142.5" rx="313" ry="310.4"/>
					<path class="st8" d="M5098.3,1458.1c-175.6,0-318.1-141.7-318.1-316s142.5-316,318.1-316s318.1,141.7,318.1,316
						S5273.5,1458.1,5098.3,1458.1z M5098.3,836.8c-169.6,0-307.9,137-307.9,305.4s138.3,305.4,307.9,305.4s307.9-137,307.9-305.4
						S5268,836.8,5098.3,836.8z"/>
				</g>
			</g>
			<g>
				<g>
					<ellipse class="st12" cx="5098.3" cy="1142.5" rx="215" ry="213.3"/>
					<path class="st8" d="M5098.3,1361c-121.3,0-220.1-98-220.1-218.4s98.8-218.4,220.1-218.4c121.3,0,220.1,98,220.1,218.4
						S5219.6,1361,5098.3,1361z M5098.3,934.3c-115.8,0-209.5,93.3-209.5,208.2s94.2,208.2,209.5,208.2
						c115.8,0,209.5-93.3,209.5-208.2S5213.7,934.3,5098.3,934.3z"/>
				</g>
			</g>
			<g>
				<g>
					<ellipse class="st13" cx="5098.3" cy="1142.5" rx="122.6" ry="121.7"/>
					<path class="st8" d="M5098.3,1269.4c-70.4,0-127.7-56.8-127.7-126.8s57.3-126.8,127.7-126.8s127.7,56.8,127.7,126.8
						S5168.7,1269.4,5098.3,1269.4z M5098.3,1025.9c-64.9,0-117.5,52.2-117.5,116.6s52.6,116.6,117.5,116.6s117.5-52.2,117.5-116.6
						S5162.8,1025.9,5098.3,1025.9z"/>
				</g>
			</g>
		</g>
	</g>
</g>
<g>
	<circle class="st14" cx="5220.4" cy="1524" r="338"/>
	<circle class="st15" cx="5220.4" cy="1524" r="265"/>
	<circle class="st16" cx="5220.4" cy="1524" r="173.4"/>
	<circle class="st17" cx="5220.4" cy="1524" r="97.8"/>
	<circle class="st16" cx="5220.4" cy="1524" r="37.8"/>
</g>
<g>
	<circle class="st4" cx="5447.9" cy="1148.7" r="285.1"/>
	<circle class="st15" cx="5447.9" cy="1148.7" r="213.5"/>
	<circle class="st18" cx="5447.9" cy="1148.7" r="146.2"/>
	<circle class="st17" cx="5447.9" cy="1148.7" r="82.5"/>
	<circle class="st5" cx="5447.9" cy="1148.7" r="31.9"/>
</g>
<path class="st19" d="M3269.2,1982.8h-324.2c-106.5,0-192.9-86.4-192.9-192.9v-498.4h710v498.4
	C3462.1,1896.4,3375.8,1982.8,3269.2,1982.8z"/>
<path class="st20" d="M3465.6,1664c-196.1,0-355-158.9-355-355s158.9-355,355-355V1664z"/>
<path class="st21" d="M2772.9,833.8c-13.4,37.5-20.8,78-20.8,120.2c0,197,159.7,356.7,356.7,356.7c197,0,356.7-159.7,356.7-356.7
	c0-42.2-7.3-82.6-20.8-120.2H2772.9z"/>
<path class="st22" d="M3444.9,833.8c-49.3-137.9-181.1-236.6-336-236.6s-286.7,98.7-336,236.6H3444.9z"/>
<circle class="st23" cx="3108.9" cy="833.8" r="45.1"/>
<path class="st24" d="M3110.7,1309c0,0.6,0,1.2,0,1.8h256.8c54.2,0,98.2-44,98.2-98.2V954C3269.6,954,3110.7,1112.9,3110.7,1309z"/>
<circle class="st25" cx="3323.7" cy="1169.8" r="45.1"/>
<g>
	<g>
		<path class="st26" d="M3267.2,755.4"/>
	</g>
</g>
<path class="st27" d="M2396.1,1310c0-196.6,159.4-356,356-356c196.6,0,356,159.4,356,356H2396.1z"/>
<path class="st25" d="M3108.2,1310c0,196.6-159.4,356-356,356c-196.6,0-356-159.4-356-356H3108.2z"/>
<polygon class="st28" points="1132.3,24.4 2752.2,958.8 2752.2,1077.8 1133,459.6 "/>
<polygon class="st29" points="2752.2,1196.7 1133.7,894.7 1133,459.6 2752.2,1077.8 "/>
<polygon class="st30" points="2752.2,1315.7 1134.3,1329.9 1133.7,894.7 2752.2,1196.7 "/>
<polygon class="st31" points="1135,1765 2752.2,1434.7 2752.2,1315.7 1134.3,1329.9 "/>
<polygon class="st32" points="2752.2,1553.7 1135.7,2200.2 1135,1765 2752.2,1434.7 "/>
<polygon class="st6" points="2752.2,1672.7 1135.7,2575.9 1135,2140.8 2752.2,1553.7 "/>
<g>
	<g>
		<g>
			<g>
				<g>
					<path class="st33" d="M1131.1,15l1116.1,645.5V1948l-1116.1,644.3L15,1948V659.3L1131.1,15z"/>
				</g>
			</g>
			<g>
				<g>
					<path class="st34" d="M1008.6,2074.7h264.4c37.6,0,73.8-7,105.8-22.3c34.8-15.3,64-36.2,90.5-61.2
						c26.4-26.4,47.3-57.1,62.6-90.5c15.3-34.8,23.7-71,23.7-108.5v-683.3c0-34.8-8.3-69.6-23.7-103c-13.9-34.8-34.8-64-59.8-90.5
						s-55.7-47.3-90.5-62.6c-34.8-16.7-71-25-109.9-25h-264.4c-39,0-75.1,8.3-109.9,25c-34.8,15.3-64,36.2-90.5,62.6
						c-25.1,25-45.9,55.7-61.2,90.5c-13.9,33.4-22.3,68.2-22.3,103v684.7c0,37.6,8.3,73.8,23.7,108.5c15.3,33.4,36.2,62.6,61.2,90.5
						c26.4,25,57.1,45.9,90.5,61.2C934.9,2066.3,971.1,2074.7,1008.6,2074.7z M1280,1934.1h-276.9V965.5H1280V1934.1z"/>
					<path class="st33" d="M1273.1,2080.2h-264.4c-39,0-75.1-7-109.9-22.3c-33.4-15.3-64-37.6-91.8-62.6
						c-26.4-26.4-47.3-58.4-62.6-91.8c-15.3-34.8-23.7-72.4-23.7-109.9v-684.7c0-36.2,7-71,22.3-105.8
						c15.3-34.8,36.2-65.4,62.6-91.8c26.4-26.4,57.1-48.7,91.8-64c34.8-16.7,72.4-25,112.7-25h264.4c39,0,77.9,8.3,112.7,25
						c34.8,15.3,65.4,37.6,91.8,64c26.4,26.4,45.9,57.1,61.2,91.8c15.3,33.4,23.7,69.6,23.7,105.8v684.7c0,39-8.3,75.1-23.7,109.9
						c-15.3,33.4-37.6,64-64,91.8c-26.4,26.4-57.1,47.3-91.8,62.6C1348.2,2073.3,1310.6,2080.2,1273.1,2080.2z M1008.6,833.3
						c-37.6,0-73.8,8.3-107.2,23.7c-33.4,15.3-62.6,36.2-87.7,61.2c-25.1,25-45.9,54.3-59.8,87.7c-13.9,32-20.9,65.4-20.9,100.2
						v687.5c0,36.2,7,72.4,22.3,105.8c15.3,32,34.8,62.6,59.8,87.7c26.4,25,55.7,44.5,87.7,59.8c33.4,13.9,68.2,20.9,105.8,20.9
						h264.4c36.2,0,71-7,104.4-20.9c33.4-15.3,62.6-34.8,87.7-59.8c26.4-26.4,47.3-55.7,62.6-87.7c15.3-33.4,22.3-68.2,22.3-105.8
						v-684.7c0-34.8-7-68.2-22.3-100.2c-13.9-33.4-33.4-62.6-58.4-87.7c-25.1-26.4-54.3-47.3-87.7-61.2c-33.4-16.7-69.6-25-107.2-25
						h-265.8V833.3z M1285.6,1941.1H996.1V958.5h289.5V1941.1z M1008.6,1928.5h265.8V971.1h-265.8V1928.5z"/>
				</g>
			</g>
			<g>
				<g>
					<path class="st35" d="M1381.6,2059.3L1381.6,2059.3c-34.8,15.3-71,22.3-108.5,22.3h-264.4c-39,0-75.1-7-111.3-22.3l0,0l0,0
						c-33.4-15.3-64-36.2-91.8-62.6l0,0l0,0c-26.4-27.8-47.3-57.1-62.6-91.8l0,0c-15.3-34.8-23.7-72.4-23.7-111.3v-684.7
						c0-36.2,7-72.4,22.3-105.8l0,0l0,0c15.3-34.8,36.2-65.4,62.6-91.8c26.4-27.8,57.1-48.7,91.8-64c34.8-16.7,72.4-25,112.7-25
						h264.4c40.4,0,77.9,8.3,112.7,25c34.8,15.3,65.4,37.6,91.8,64c26.4,26.4,45.9,57.1,61.2,91.8c15.3,33.4,23.7,69.6,23.7,105.8
						v684.7c0,39-8.3,75.1-23.7,111.3l0,0c-15.3,33.4-37.6,64-64,91.8C1448.4,2021.8,1417.8,2042.6,1381.6,2059.3L1381.6,2059.3z
						 M1531.9,1005.9c-13.9-34.8-34.8-64-59.8-90.5s-55.7-47.3-90.5-62.6c-34.8-16.7-71-25-109.9-25h-264.4c-39,0-75.1,8.3-109.9,25
						c-34.8,15.3-64,36.2-90.5,62.6c-25.1,25-45.9,55.7-61.2,90.5c-13.9,33.4-22.3,68.2-22.3,103v684.7c0,37.6,8.3,73.8,23.7,108.5
						c15.3,33.4,36.2,62.6,61.2,90.5c26.4,25,57.1,45.9,90.5,61.2c34.8,13.9,71,22.3,108.5,22.3h264.4c37.6,0,73.8-7,105.8-22.3
						c34.8-15.3,64-36.2,90.5-61.2c26.4-26.4,47.3-57.1,62.6-90.5c15.3-34.8,23.7-71,23.7-108.5v-684.7
						C1555.6,1072.7,1547.2,1037.9,1531.9,1005.9z M1008.6,1927.1h264.4V972.5h-264.4V1927.1z M1280,1934.1V965.5h-276.9v968.6H1280
						z"/>
				</g>
			</g>
			<g>
				<g>
					<path class="st34" d="M1008.6,2003.7h264.4c37.6,0,73.8-7,105.8-22.3c34.8-15.3,64-36.2,90.5-61.2
						c26.4-26.4,47.3-57.1,62.6-90.5c15.3-34.8,23.7-71,23.7-108.5v-683.3c0-34.8-8.3-69.6-23.7-103c-13.9-34.8-34.8-64-59.8-90.5
						c-25.1-26.4-55.7-47.3-90.5-62.6c-34.8-16.7-71-25-109.9-25h-264.4c-39,0-75.1,8.3-109.9,25c-34.8,15.3-64,36.2-90.5,62.6
						c-25.1,25-45.9,55.7-61.2,90.5c-13.9,33.4-22.3,68.2-22.3,103v684.7c0,37.6,8.3,73.8,23.7,108.5c15.3,33.4,36.2,62.6,61.2,90.5
						c26.4,25,57.1,45.9,90.5,61.2C934.9,1995.3,971.1,2003.7,1008.6,2003.7z M1280,1863.1h-276.9V894.5H1280V1863.1z"/>
					<path class="st33" d="M1273.1,2009.2h-264.4c-39,0-75.1-7-109.9-22.3c-33.4-15.3-64-37.6-91.8-62.6
						c-26.4-26.4-47.3-58.4-62.6-91.8c-15.3-34.8-23.7-72.4-23.7-109.9v-684.7c0-36.2,7-71,22.3-105.8
						c15.3-34.8,37.6-65.4,62.6-91.8c26.4-26.4,57.1-48.7,91.8-64c34.8-16.7,72.4-25,112.7-25h264.4c39,0,77.9,8.3,112.7,25
						c34.8,15.3,65.4,37.6,91.8,64c26.4,26.4,45.9,57.1,61.2,91.8c15.3,33.4,23.7,69.6,23.7,105.8v684.7c0,39-8.3,75.1-23.7,109.9
						c-15.3,33.4-37.6,64-64,91.8c-26.4,26.4-57.1,47.3-91.8,62.6C1348.2,2002.3,1310.6,2009.2,1273.1,2009.2z M1008.6,762.3
						c-37.6,0-73.8,8.3-107.2,23.7c-33.4,15.3-62.6,36.2-87.7,61.2c-25.1,25-44.5,54.3-59.8,87.7c-13.9,32-20.9,65.4-20.9,100.2
						v684.7c0,36.2,7,72.4,22.3,105.8c15.3,32,34.8,62.6,59.8,87.7c26.4,25,55.7,44.5,87.7,59.8c33.4,13.9,68.2,20.9,105.8,20.9
						h264.4c36.2,0,71-7,104.4-20.9c33.4-15.3,62.6-34.8,87.7-59.8c26.4-26.4,47.3-55.7,62.6-87.7c15.3-33.4,22.3-68.2,22.3-105.8
						v-681.9c0-34.8-7-68.2-22.3-100.2c-13.9-33.4-33.4-62.6-58.4-87.7c-25.1-26.4-54.3-47.3-87.7-61.2c-33.4-16.7-69.6-25-107.2-25
						h-265.8V762.3z M1285.6,1870.1H996.1V889h289.5V1870.1z M1008.6,1857.6h265.8V900.1h-265.8V1857.6z"/>
				</g>
			</g>
			<g>
				<g>
					<path class="st35" d="M1381.6,1988.4L1381.6,1988.4c-34.8,15.3-71,22.3-108.5,22.3h-264.4c-39,0-75.1-7-111.3-22.3l0,0l0,0
						c-33.4-15.3-64-36.2-91.8-62.6l0,0l0,0c-26.4-27.8-47.3-57.1-62.6-91.8l0,0c-15.3-34.8-23.7-72.4-23.7-111.3v-684.7
						c0-36.2,7-72.4,22.3-105.8l0,0l0,0c15.3-34.8,36.2-65.4,62.6-91.8c26.4-27.8,57.1-48.7,91.8-64c34.8-16.7,72.4-25,112.7-25
						h264.4c40.4,0,77.9,8.3,112.7,25c34.8,15.3,65.4,37.6,91.8,64c26.4,26.4,45.9,57.1,61.2,91.8c15.3,33.4,23.7,69.6,23.7,105.8
						v684.7c0,39-8.3,75.1-23.7,111.3l0,0c-15.3,33.4-37.6,64-64,91.8C1448.4,1950.8,1417.8,1971.7,1381.6,1988.4L1381.6,1988.4z
						 M1531.9,934.9c-13.9-34.8-34.8-64-59.8-90.5s-55.7-47.3-90.5-62.6c-34.8-16.7-71-25-109.9-25h-264.4c-39,0-75.1,8.3-109.9,25
						c-34.8,15.3-64,36.2-90.5,62.6c-25.1,25-45.9,55.7-61.2,90.5c-13.9,33.4-22.3,68.2-22.3,103v684.7c0,37.6,8.3,73.8,23.7,108.5
						c15.3,33.4,36.2,62.6,61.2,90.5c26.4,25,57.1,45.9,90.5,61.2c34.8,13.9,71,22.3,108.5,22.3h264.4c37.6,0,73.8-7,105.8-22.3
						c34.8-15.3,64-36.2,90.5-61.2c26.4-26.4,47.3-57.1,62.6-90.5c15.3-34.8,23.7-71,23.7-108.5v-684.7
						C1555.6,1001.7,1547.2,966.9,1531.9,934.9z M1008.6,1856.2h264.4V901.5h-264.4V1856.2z M1280,1863.1V894.5h-276.9v968.6H1280z"
						/>
				</g>
			</g>
			<g>
				<g>
					<path class="st34" d="M1008.6,1932.7h264.4c37.6,0,73.8-7,105.8-22.3c34.8-15.3,64-36.2,90.5-61.2
						c26.4-26.4,47.3-57.1,62.6-90.5c15.3-34.8,23.7-71,23.7-108.5V966.9c0-34.8-8.3-69.6-23.7-103c-13.9-34.8-34.8-64-59.8-90.5
						c-25.1-26.4-55.7-47.3-90.5-62.6c-34.8-16.7-71-25-109.9-25h-264.4c-39,0-75.1,8.3-109.9,25c-34.8,15.3-64,36.2-90.5,62.6
						c-25.1,25-45.9,55.7-61.2,90.5c-13.9,33.4-22.3,68.2-22.3,103v684.7c0,37.6,8.3,73.8,23.7,108.5c15.3,33.4,36.2,62.6,61.2,90.5
						c26.4,25,57.1,45.9,90.5,61.2C934.9,1925.7,971.1,1932.7,1008.6,1932.7z M1280,1792.1h-276.9V823.6H1280V1792.1z"/>
					<path class="st33" d="M1273.1,1938.3h-264.4c-39,0-75.1-7-109.9-22.3c-33.4-15.3-64-37.6-91.8-62.6
						c-26.4-26.4-47.3-58.4-62.6-91.8c-15.3-34.8-23.7-72.4-23.7-109.9V966.9c0-36.2,7-71,22.3-105.8c15.3-34.8,37.6-65.4,62.6-91.8
						c26.4-26.4,57.1-48.7,91.8-64c34.8-16.7,72.4-25,112.7-25h264.4c39,0,77.9,8.3,112.7,25c34.8,15.3,65.4,37.6,91.8,64
						c26.4,26.4,45.9,57.1,61.2,91.8c15.3,33.4,23.7,69.6,23.7,105.8v684.7c0,39-8.3,75.1-23.7,109.9c-15.3,33.4-37.6,64-64,91.8
						c-26.4,26.4-57.1,47.3-91.8,62.6C1348.2,1931.3,1310.6,1938.3,1273.1,1938.3z M1008.6,691.3c-37.6,0-73.8,8.3-107.2,23.7
						c-33.4,15.3-62.6,36.2-87.7,61.2c-25.1,25-44.5,54.3-59.8,87.7c-13.9,32-20.9,66.8-20.9,100.2v684.7c0,36.2,7,72.4,22.3,105.8
						c15.3,32,34.8,62.6,59.8,87.7c26.4,25,55.7,44.5,87.7,59.8c33.4,13.9,68.2,20.9,105.8,20.9h264.4c36.2,0,71-7,104.4-20.9
						c33.4-15.3,62.6-34.8,87.7-59.8c26.4-26.4,47.3-55.7,62.6-87.7c15.3-33.4,22.3-68.2,22.3-105.8V966.9c0-34.8-7-68.2-22.3-100.2
						c-13.9-33.4-33.4-62.6-58.4-87.7c-25.1-26.4-54.3-47.3-87.7-61.2c-33.4-16.7-69.6-25-107.2-25h-265.8V691.3z M1285.6,1799.1
						H996.1V818h289.5V1799.1z M1008.6,1786.6h265.8V829.1h-265.8V1786.6z"/>
				</g>
			</g>
			<g>
				<g>
					<path class="st35" d="M1381.6,1917.4L1381.6,1917.4c-34.8,15.3-71,22.3-108.5,22.3h-264.4c-39,0-75.1-7-111.3-22.3l0,0l0,0
						c-33.4-15.3-64-36.2-91.8-62.6l0,0l0,0c-26.4-27.8-47.3-57.1-62.6-91.8l0,0c-15.3-34.8-23.7-72.4-23.7-111.3V966.9
						c0-36.2,7-72.4,22.3-105.8l0,0l0,0c15.3-34.8,36.2-65.4,62.6-91.8c26.4-27.8,57.1-48.7,91.8-64c34.8-16.7,72.4-25,112.7-25
						h264.4c40.4,0,77.9,8.3,112.7,25c34.8,15.3,65.4,37.6,91.8,64c26.4,26.4,45.9,57.1,61.2,91.8c15.3,33.4,23.7,69.6,23.7,105.8
						v684.7c0,39-8.3,75.1-23.7,111.3l0,0c-15.3,33.4-37.6,64-64,91.8C1448.4,1879.8,1417.8,1900.7,1381.6,1917.4L1381.6,1917.4z
						 M1531.9,863.9c-13.9-34.8-34.8-64-59.8-90.5c-25.1-26.4-55.7-47.3-90.5-62.6c-34.8-16.7-71-25-109.9-25h-264.4
						c-39,0-75.1,8.3-109.9,25c-34.8,15.3-64,36.2-90.5,62.6c-25.1,25-45.9,55.7-61.2,90.5c-13.9,33.4-22.3,68.2-22.3,103v684.7
						c0,37.6,8.3,73.8,23.7,108.5c15.3,33.4,36.2,62.6,61.2,90.5c26.4,25,57.1,45.9,90.5,61.2c34.8,13.9,71,22.3,108.5,22.3h264.4
						c37.6,0,73.8-7,105.8-22.3c34.8-15.3,64-36.2,90.5-61.2c26.4-26.4,47.3-57.1,62.6-90.5c15.3-34.8,23.7-71,23.7-108.5V966.9
						C1555.6,930.7,1547.2,897.3,1531.9,863.9z M1008.6,1785.2h264.4V830.5h-264.4V1785.2z M1280,1792.1V823.6h-276.9v968.6H1280z"
						/>
				</g>
			</g>
			<g>
				<g>
					<path class="st34" d="M1008.6,1861.7h264.4c37.6,0,73.8-7,105.8-22.3c34.8-15.3,64-36.2,90.5-61.2
						c26.4-26.4,47.3-57.1,62.6-90.5c15.3-34.8,23.7-71,23.7-108.5V895.9c0-34.8-8.3-69.6-23.7-103c-13.9-34.8-34.8-64-59.8-90.5
						c-25.1-26.4-55.7-47.3-90.5-62.6c-34.8-16.7-71-25-109.9-25h-264.4c-39,0-75.1,8.3-109.9,25c-34.8,15.3-64,36.2-90.5,62.6
						c-25.1,25-45.9,55.7-61.2,90.5c-13.9,33.4-22.3,68.2-22.3,103v684.7c0,37.6,8.3,73.8,23.7,108.5c15.3,33.4,36.2,62.6,61.2,90.5
						c26.4,25,57.1,45.9,90.5,61.2C934.9,1854.8,971.1,1861.7,1008.6,1861.7z M1280,1721.2h-276.9V752.6H1280V1721.2z"/>
					<path class="st33" d="M1273.1,1867.3h-264.4c-39,0-75.1-7-109.9-22.3c-33.4-15.3-64-37.6-91.8-62.6
						c-26.4-26.4-47.3-58.4-62.6-91.8c-15.3-34.8-23.7-72.4-23.7-109.9V895.9c0-36.2,7-71,22.3-105.8c15.3-34.8,37.6-65.4,62.6-91.8
						c26.4-26.4,57.1-48.7,91.8-64c34.8-16.7,72.4-25,112.7-25h264.4c39,0,77.9,8.3,112.7,25c34.8,15.3,65.4,37.6,91.8,64
						c26.4,26.4,45.9,57.1,61.2,91.8c15.3,33.4,23.7,69.6,23.7,105.8v684.7c0,39-8.3,75.1-23.7,109.9c-15.3,33.4-37.6,64-64,91.8
						c-26.4,26.4-57.1,47.3-91.8,62.6C1348.2,1860.3,1310.6,1867.3,1273.1,1867.3z M1008.6,620.4c-37.6,0-73.8,8.3-107.2,23.7
						c-33.4,15.3-62.6,36.2-87.7,61.2c-25.1,25-44.5,54.3-59.8,87.7c-13.9,32-20.9,66.8-20.9,100.2v684.7c0,36.2,7,72.4,22.3,105.8
						c15.3,32,34.8,62.6,59.8,87.7c26.4,25,55.7,44.5,87.7,59.8c33.4,13.9,68.2,20.9,105.8,20.9h264.4c36.2,0,71-7,104.4-20.9
						c33.4-15.3,62.6-34.8,87.7-59.8c26.4-26.4,47.3-55.7,62.6-87.7c15.3-33.4,22.3-68.2,22.3-105.8V895.9c0-34.8-7-68.2-22.3-100.2
						c-13.9-33.4-33.4-62.6-58.4-87.7c-25.1-26.4-54.3-47.3-87.7-62.6c-33.4-16.7-69.6-25-107.2-25H1008.6z M1285.6,1728.1H996.1
						V747h289.5V1728.1z M1008.6,1715.6h265.8V758.1h-265.8V1715.6z"/>
				</g>
			</g>
			<g>
				<g>
					<path class="st35" d="M1381.6,1846.4L1381.6,1846.4c-34.8,15.3-71,22.3-108.5,22.3h-264.4c-39,0-75.1-7-111.3-22.3l0,0l0,0
						c-33.4-15.3-64-36.2-91.8-62.6l0,0l0,0c-26.4-27.8-47.3-57.1-62.6-91.8l0,0c-15.3-34.8-23.7-72.4-23.7-111.3V895.9
						c0-36.2,7-72.4,22.3-105.8l0,0l0,0c15.3-34.8,36.2-65.4,62.6-91.8c26.4-27.8,57.1-48.7,91.8-64c34.8-16.7,72.4-25,112.7-25
						h264.4c40.4,0,77.9,8.3,112.7,25c34.8,15.3,65.4,37.6,91.8,64c26.4,26.4,45.9,57.1,61.2,91.8c15.3,33.4,23.7,69.6,23.7,105.8
						v684.7c0,39-8.3,75.1-23.7,111.3l0,0c-15.3,33.4-37.6,64-64,91.8C1448.4,1808.8,1417.8,1829.7,1381.6,1846.4L1381.6,1846.4z
						 M1531.9,792.9c-13.9-34.8-34.8-64-59.8-90.5c-25.1-26.4-55.7-47.3-90.5-62.6c-34.8-16.7-71-25-109.9-25h-264.4
						c-39,0-75.1,8.3-109.9,25c-34.8,15.3-64,36.2-90.5,62.6c-25.1,25-45.9,55.7-61.2,90.5c-13.9,33.4-22.3,68.2-22.3,103v684.7
						c0,37.6,8.3,73.8,23.7,108.5c15.3,33.4,36.2,62.6,61.2,90.5c26.4,25,57.1,45.9,90.5,61.2c34.8,13.9,71,22.3,108.5,22.3h264.4
						c37.6,0,73.8-7,105.8-22.3c34.8-15.3,64-36.2,90.5-61.2c26.4-26.4,47.3-57.1,62.6-90.5c15.3-34.8,23.7-71,23.7-108.5V895.9
						C1555.6,859.7,1547.2,826.3,1531.9,792.9z M1008.6,1714.2h264.4V759.5h-264.4V1714.2z M1280,1721.2V752.6h-276.9v968.6
						L1280,1721.2L1280,1721.2z"/>
				</g>
			</g>
			<g>
				<g>
					<path class="st36" d="M1008.6,1790.8h264.4c37.6,0,73.8-7,105.8-22.3c34.8-15.3,64-36.2,90.5-61.2
						c26.4-26.4,47.3-57.1,62.6-90.5c15.3-34.8,23.7-71,23.7-108.5V824.9c0-34.8-8.3-69.6-23.7-103c-13.9-34.8-34.8-64-59.8-90.5
						c-25.1-26.4-55.7-47.3-90.5-62.6c-34.8-16.7-71-25-109.9-25h-264.4c-39,0-75.1,8.3-109.9,25c-34.8,15.3-64,36.2-90.5,62.6
						c-25.1,25-45.9,55.7-61.2,90.5c-13.9,33.4-22.3,68.2-22.3,103v684.7c0,37.6,8.3,73.8,23.7,108.5c15.3,33.4,36.2,62.6,61.2,90.5
						c26.4,25,57.1,45.9,90.5,61.2C934.9,1783.8,971.1,1790.8,1008.6,1790.8z M1280,1650.2h-276.9V681.6H1280V1650.2z"/>
					<path class="st33" d="M1273.1,1796.3h-264.4c-39,0-75.1-7-109.9-22.3c-33.4-15.3-64-37.6-91.8-62.6
						c-26.4-26.4-47.3-58.4-62.6-91.8c-15.3-34.8-23.7-72.4-23.7-109.9V824.9c0-36.2,7-71,22.3-105.8c15.3-34.8,37.6-65.4,62.6-91.8
						c26.4-26.4,57.1-48.7,91.8-64c34.8-16.7,72.4-25,112.7-25h264.4c39,0,77.9,8.3,112.7,25c34.8,15.3,65.4,37.6,91.8,64
						c26.4,26.4,45.9,57.1,61.2,91.8c15.3,33.4,23.7,69.6,23.7,105.8v684.7c0,39-8.3,75.1-23.7,109.9c-15.3,33.4-37.6,64-64,91.8
						c-26.4,26.4-57.1,47.3-91.8,62.6C1348.2,1789.4,1310.6,1796.3,1273.1,1796.3z M1008.6,549.4c-37.6,0-73.8,8.3-107.2,23.7
						c-33.4,15.3-62.6,36.2-87.7,61.2c-25.1,25-44.5,54.3-59.8,87.7c-13.9,32-20.9,65.4-20.9,100.2v684.7c0,36.2,7,72.4,22.3,105.8
						c15.3,32,34.8,62.6,59.8,87.7c26.4,25,55.7,44.5,87.7,59.8c33.4,13.9,68.2,20.9,105.8,20.9h264.4c36.2,0,71-7,104.4-20.9
						c33.4-15.3,62.6-34.8,87.7-59.8c26.4-26.4,47.3-55.7,62.6-87.7c15.3-33.4,22.3-68.2,22.3-105.8V824.9c0-34.8-7-68.2-22.3-100.2
						c-13.9-33.4-33.4-62.6-58.4-87.7c-25.1-26.4-54.3-47.3-87.7-62.6c-33.4-16.7-69.6-25-107.2-25
						C1274.4,549.4,1008.6,549.4,1008.6,549.4z M1285.6,1657.2H996.1V676h289.5V1657.2z M1008.6,1644.6h265.8V687.2h-265.8V1644.6z"
						/>
				</g>
			</g>
			<g>
				<g>
					<path class="st35" d="M1381.6,1775.4L1381.6,1775.4c-34.8,15.3-71,22.3-108.5,22.3h-264.4c-39,0-75.1-7-111.3-22.3l0,0l0,0
						c-33.4-15.3-64-36.2-91.8-62.6l0,0l0,0c-26.4-27.8-47.3-57.1-62.6-91.8l0,0c-15.3-34.8-23.7-72.4-23.7-111.3V824.9
						c0-36.2,7-72.4,22.3-105.8l0,0l0,0c15.3-34.8,36.2-65.4,62.6-91.8c26.4-27.8,57.1-48.7,91.8-64c34.8-16.7,72.4-25,112.7-25
						h264.4c40.4,0,77.9,8.3,112.7,25c34.8,15.3,65.4,37.6,91.8,64c26.4,26.4,45.9,57.1,61.2,91.8c15.3,33.4,23.7,69.6,23.7,105.8
						v684.7c0,39-8.3,75.1-23.7,111.3l0,0c-15.3,33.4-37.6,64-64,91.8C1448.4,1737.9,1417.8,1758.7,1381.6,1775.4L1381.6,1775.4z
						 M1531.9,722c-13.9-34.8-34.8-64-59.8-90.5c-25.1-26.4-55.7-47.3-90.5-62.6c-34.8-16.7-71-25-109.9-25h-264.4
						c-39,0-75.1,8.3-109.9,25c-34.8,15.3-64,36.2-90.5,62.6c-25.1,25-45.9,55.7-61.2,90.5c-13.9,33.4-22.3,68.2-22.3,103v684.7
						c0,37.6,8.3,73.8,23.7,108.5c15.3,33.4,36.2,62.6,61.2,90.5c26.4,25,57.1,45.9,90.5,61.2c34.8,13.9,71,22.3,108.5,22.3h264.4
						c37.6,0,73.8-7,105.8-22.3c34.8-15.3,64-36.2,90.5-61.2c26.4-26.4,47.3-57.1,62.6-90.5c15.3-34.8,23.7-71,23.7-108.5V824.9
						C1555.6,788.8,1547.2,755.4,1531.9,722z M1008.6,1643.2h264.4V688.6h-264.4V1643.2z M1280,1650.2V681.6h-276.9v968.6H1280z"/>
				</g>
			</g>
			<g>
				<g>
					<path class="st36" d="M1505.5,1163.1c0,304.8-164.2,551.1-367.4,551.1s-367.4-246.3-367.4-551.1S934.9,612,1138.1,612
						S1505.5,859.7,1505.5,1163.1z"/>
				</g>
			</g>
			<g>
				<g>
					<path class="st33" d="M1069.9,897.3c0,37.6-13.9,69.6-30.6,69.6s-30.6-30.6-30.6-69.6c0-39,13.9-69.6,30.6-69.6
						S1069.9,858.3,1069.9,897.3z"/>
				</g>
			</g>
			<g>
				<g>
					<path class="st33" d="M1270.3,897.3c0,37.6-13.9,69.6-30.6,69.6s-30.6-30.6-30.6-69.6c0-39,13.9-69.6,30.6-69.6
						S1270.3,858.3,1270.3,897.3z"/>
				</g>
			</g>
			<g>
				<g>
					<path class="st35" d="M879.2,1049c0,147.5,118.3,267.2,263,267.2s263-119.7,263-267.2h7c0,151.7-121.1,274.2-270,274.2
						c-148.9,0-270-122.5-270-274.2H879.2z"/>
					<path class="st33" d="M1142.2,1328.7c-151.7,0-275.5-125.2-275.5-279.7v-5.6h19.5v5.6c0,143.3,115.5,260.2,257.5,260.2
						s257.5-116.9,257.5-260.2v-5.6h19.5v5.6C1417.8,1203.5,1293.9,1328.7,1142.2,1328.7z"/>
				</g>
			</g>
		</g>
	</g>
</g>
<g>
	<g>
		<polygon class="st37" points="4249.2,1599.7 3713.3,1544.9 3669.3,1024.8 4241.2,1026.5 		"/>
		<path class="st8" d="M4249.2,1603.9l-535.9-54.8c-2.5,0-4.2-1.7-4.2-4.2l-44-520.1c0-1.3,0.4-2.1,1.3-3c0.8-0.8,1.7-1.3,3-1.3l0,0
			l579.2,1.3c2.1,0,4.2,1.7,4.2,4.2l0.7,573.6c0,1.3-0.4,2.1-1.3,3C4251.4,1603.5,4250.5,1603.9,4249.2,1603.9z M3717.6,1540.6
			l527.4,54.8l-0.7-565.1l-570.7-1.3L3717.6,1540.6L3717.6,1540.6z"/>
	</g>
</g>
<path class="st38" d="M3465.6,954c196.1,0,355,158.9,355,355s-158.9,355-355,355V954z"/>
<g>
	<g>
		<path class="st39" d="M3469.9,1510c-10.2-0.8-20.8-1.7-31.4-1.7c-168.4,0-305.4,136.6-305.4,305.4c0,61.1,17.8,117.5,48.8,165.4
			h89.1c109.8,0,199.3-89.1,199.3-199.3L3469.9,1510z"/>
		<path class="st8" d="M3271,1983.3h-91.2l-1.3-2.1c-32.2-50-49.2-107.7-49.2-167.5c0-170.5,138.7-309.6,309.6-309.6
			c10.6,0,21.2,0.4,31.8,1.7l3.8,0.4v273.5C3474.1,1892.2,3382.9,1983.3,3271,1983.3z M3184,1974.9h86.5
			c107.3,0,195.1-87.4,195.1-195.1v-265.9c-8.9-0.8-18.2-1.3-27.1-1.3c-165.8,0-301.1,134.9-301.1,301.1
			C3137.4,1870.9,3153.5,1926.5,3184,1974.9z"/>
	</g>
</g>
<g>
	<g>
		<polygon class="st12" points="4076.4,1722.2 3472.4,1723.9 3472.4,1154.7 4070.4,1158.1 		"/>
		<path class="st8" d="M3472.4,1728.1c-1.3,0-2.1-0.4-3-1.3c-0.8-0.8-1.3-1.7-1.3-3v-569.2c0-1.3,0.4-2.1,1.3-3
			c0.8-0.8,2.1-1.3,3-1.3l598,3.4c2.1,0,4.2,1.7,4.2,4.2l5.5,564.1c0,1.3-0.4,2.1-1.3,3c-0.8,0.8-1.7,1.3-3,1.3L3472.4,1728.1
			L3472.4,1728.1z M3476.7,1158.9v560.7l595-1.7l-5.5-555.6L3476.7,1158.9z"/>
	</g>
</g>
<g>
	<g>
		<polygon class="st40" points="4245.9,1606 4084.6,1732.9 4078.6,1157.2 4249.4,1027.4 		"/>
		<path class="st8" d="M4084.6,1737.2c-0.4,0-1.3,0-1.7-0.4c-1.7-0.8-2.5-2.1-2.5-3.8l-5.9-576.1c0-1.3,0.4-2.5,1.7-3.4l170.7-129.9
			c1.3-0.8,3-1.3,4.7-0.4c1.7,0.8,2.5,2.1,2.5,3.8l-3.5,578.6c0,1.3-0.4,2.5-1.7,3.4l-161.3,126.9
			C4086.7,1737.2,4085.9,1737.2,4084.6,1737.2z M4082.9,1158.9l5.9,565.1l152.8-120.1l3.5-567.6L4082.9,1158.9z"/>
	</g>
</g>
<g>
	<g>
		<path class="st8" d="M3540.3,1667.5v-449.1h468.6v4.2l1.3,441.9L3540.3,1667.5z M3548.3,1226.8V1659l453.4-3l-1.3-429.6h-452.1
			V1226.8z"/>
	</g>
</g>
<g>
	<g>
		<path class="st8" d="M3610.7,1598.3v-314.3h328.7v313.8L3610.7,1598.3z M3619.2,1292.5v297.7l312.1-0.4v-297.3H3619.2z"/>
	</g>
</g>
<g>
	<g>
		<rect x="3671.8" y="1343.9" class="st8" width="202.3" height="192.1"/>
	</g>
</g>
<g>
	<g>
		
			<rect x="3963.8" y="1484" transform="matrix(0.6813 -0.732 0.732 0.6813 75.9688 3421.9695)" class="st8" width="8.1" height="279.5"/>
	</g>
</g>
<g>
	<g>
		
			<rect x="3454.9" y="1667.2" transform="matrix(0.6726 -0.74 0.74 0.6726 -58.9313 3205.4946)" class="st8" width="276.5" height="4.2"/>
	</g>
</g>
<g>
	<g>
		
			<rect x="3571.6" y="1161.7" transform="matrix(0.6825 -0.7309 0.7309 0.6825 183.9527 3026.6865)" class="st8" width="8.1" height="279.9"/>
	</g>
</g>
<g>
	<g>
		
			<rect x="3831.8" y="1250.9" transform="matrix(0.7264 -0.6873 0.6873 0.7264 223.4639 3071.1777)" class="st8" width="274.4" height="8.1"/>
	</g>
</g>
<g>
	<g>
		<ellipse class="st9" cx="3374" cy="1718" rx="325.7" ry="325.7"/>
		<g>
			<path class="st33" d="M3374,1387.9c181.9,0,330,148,330,330c0,181.9-148,330-330,330c-181.9,0-330-148-330-330
				C3044.1,1535.9,3192.1,1387.9,3374,1387.9 M3374,2039.3c177.3,0,321.5-144.2,321.5-321.5s-144.2-321.5-321.5-321.5
				c-177.3,0-321.5,144.2-321.5,321.5S3196.8,2039.3,3374,2039.3 M3374,1386.6c-182.6,0-331.2,148.6-331.2,331.2
				s148.6,331.2,331.2,331.2c182.6,0,331.2-148.6,331.2-331.2S3556.7,1386.6,3374,1386.6L3374,1386.6z M3374,2038
				c-176.6,0-320.2-143.6-320.2-320.2s143.6-320.2,320.2-320.2s320.2,143.6,320.2,320.2S3550.6,2038,3374,2038L3374,2038z"/>
		</g>
	</g>
</g>
<g>
	<g>
		<path class="st41" d="M3374.9,1390.9c-179.8,0-325.7,145.9-325.7,325.7c0,108.6,53.4,204.8,135.3,264.2h81.4
			c111.5,0,201.9-90.3,201.9-201.9v-374.5C3438.1,1395.5,3407.1,1390.9,3374.9,1390.9z"/>
	</g>
</g>
<g>
	<g>
		<path class="st42" d="M3180,1979.9c39.4,24.9,97,52.6,92,43.9c-3.2-5-25.4-27.6-42.1-43.5"/>
		<path class="st8" d="M3271.5,2030.2c-4.1,0-12.7-2.7-34.9-13.6c-19.9-9.5-41.7-22.2-58.9-32.6l5-7.7
			c27.6,17.7,61.2,34.4,78.4,41.7c-8.2-8.6-21.3-21.7-34-34l6.3-6.8c15.4,14,39.4,38.1,43,44.4c1.8,2.7,0.9,5.4-0.5,6.8
			C3274.7,2029.3,3273.8,2030.2,3271.5,2030.2z"/>
	</g>
</g>
<g>
	<g>
		<path class="st43" d="M3236.2,1985.5c-10.2-12.7-41.1-36-34.8-46.7c28.8-46.7-3.4-42.8-11.5-63.6c-3.4-8.9-4.7-25-43.7-25
			c-29.7,0-55.6,18.7-63.2-14.4c-2.5-10.6,0-29.3,0.8-40.3c1.7-19.5,3.8-40.3,14-56.4c10.2-16.1,29.3-25.9,44.5-17.4
			c10.6,6.4,16.1,45.4,20.8,56.8c6.4,15.3,11.5-11,11.5-18.7c0-31.8-16.1-49.6-1.3-77.6c8.1-15.7,8.5-53.4,23.7-57.3
			c67-17,14-21.6,22.5-34.8c8.5-12.3,27.6-21.6,21.2-26.7c-5.1-3.8,17.4-38.2-33.1-15.7c-9.8,4.2-31,40.3-40.7,35.6
			c-90.3-43.3,59.8-75.1,50.5-109.8c-3-11-36.5,17.8-62.8,23.8c-6.4,1.3,3.8,10.6-0.8,13.6c-11,6.8-19.1,8.1-22.5,5.5l-8.9-1.5
			c-10.2,13.1-80.1,92.3-71.2,237.7c2.5,38.6,18.2,88.6,37.3,121.3c30.5,52.6,59.8,77.2,96.3,108.1"/>
	</g>
</g>
<g>
	<g>
		<path class="st8" d="M3165,1781.5C3165,1781,3165.4,1781,3165,1781.5C3165,1781,3165,1781,3165,1781.5z M3219.7,1594
			C3219.7,1593.6,3219.7,1593.6,3219.7,1594L3219.7,1594z M3241.3,1562.2L3241.3,1562.2L3241.3,1562.2z M3153.9,1499.9
			C3153.9,1499.9,3154.4,1499.4,3153.9,1499.9L3153.9,1499.9z M3153.9,1500.3L3153.9,1500.3
			C3153.5,1500.7,3153.5,1500.3,3153.9,1500.3z"/>
	</g>
</g>
<g>
	<g>
		<path class="st44" d="M3527.6,2006.7c-15.7-27.6,0.8-8.5,8.1-37.3c4.2-16.1,9.8-23.3,14-39.4c1.7-7.2,4.2-26.3,1.3-31.8
			c-3-5.5-24.2-5.1-29.7-3c-16.5,6.4-33.9,2.1-25.4-72.1c1.3-9.3,14.4-29.3,17.4-38.6c3.4-11.5,11-19.9,19.5-25.9
			c17-11.9,22.9,7.6,41.1,7.2c8.1,0,21.6-18.7,28.8-14.8c5.1,3,36.5,0.4,40.3,5.1c20.8,24.2,35.2,28.4,35.2,67.4
			c0.4,59.8-103.9,165.8-157.8,185.8"/>
	</g>
</g>
<g>
	<g>
		<path class="st44" d="M3560.2,1711.9c-8.1,13.6-26.3,18.7-39.4,10.6c-3-1.7-5.5-4.7-5.1-8.1c0.4-1.7,1.3-3,2.1-4.2l20.4-28.4
			c2.1-2.5,3.8-5.5,6.8-7.2c2.5-1.3,5.1-1.7,7.2-3.4c8.5-5.5,5.1-19.9,0-28.4c-2.1-3.4-3.8-7.2-4.7-11c-4.2-16.1,5.1-20.8,13.6-24.6
			l8.1-3.8c3-1.3,2.5-5.5-0.8-6.4c-23.3-5.1-21.2-20.4-15.3-23.3c12.7-6.8,46.2-12.3,59-21.6c2.5-1.7,4.7-3.8,5.9-6.8
			c2.1-6.4-3-14-9.3-15.7c-6.4-1.7-12.7,1.3-18.2,4.7c-5.9,4.2-11.5,9.3-15.7,15.3c-1.3,1.7-2.5,3.4-4.2,4.2
			c-3.4,0.8-6.4-2.5-7.6-5.9c-4.2-12.7,3.8-27.6,15.3-33.1c4.2-2.1,9.3-3.8,11.5-8.5c1.7-3.8,0.4-8.5,2.1-12.3
			c2.1-4.2,7.2-5.5,11-4.2c3.8,1.3,7.6,4.2,10.6,7.6c34.8,35.2,69.1,103.9,78.9,154.4c2.5,13.6,6.4,31.8,6.8,44.5
			c0,6.4,0.4,24.6-12.3,8.1l-27.6-12.7c-16.1-3-8.9,4.7-6.4,8.1c18.7,39.4,35.2,34.8,25.4,52.2c-8.5,16.5-14-14.8-22.5-16.5
			c-8.1-1.7-16.5-8.5-20.8-15.7c-1.7-3-7.6-5.9-11-5.9c-1.7,0-3.4,1.3-4.7,2.5c-5.9,5.1-16.1,8.5-19.5,1.3c-3-5.9,2.1-12.7,4.2-19.5
			c2.1-6.8,0-14.4-4.7-19.1c-4.7-4.7-11.9-5.9-17.8-3.4c-2.1,0.8-3.4,2.1-4.7,3.8c-3,5.9,13.1,14.8,10.6,19.1
			c-3.8,4.2-13.1-3-17-7.2c-3.8-4.2-11-8.1-14-3c-4.2,7.2,10.2,13.6,3.8,23.3"/>
	</g>
</g>
<g>
	<g>
		<path class="st44" d="M3539.9,1660.2c-0.8-11.5-10.6-26.3-19.5-31.8c-2.5-1.7-5.9-2.5-8.1-0.4c-1.7,1.7-1.7,4.2-1.7,6.4
			c0.8,13.1,10.6,22.9,19.5,31c0.8,0.8,2.1,1.7,3.4,2.1c2.5,0.4,6.4-1.3,5.9-4.2c-0.4-3-5.1,4.2-7.2,2.1"/>
	</g>
</g>
<g>
	<g>
		<path class="st43" d="M3405,1529.1c-10.6,5.9-17,9.8-23.7,19.5c-4.2,5.5-7.6,11.9-13.1,16.5c-5.5,4.2-13.6,6.4-19.5,2.1
			c-6.4-4.7-6.4-14-10.2-20.8c-1.7-3.4-4.7-5.9-6.4-8.9c-2.5-4.2-3-8.9-3.8-14c-5.1-24.6-25-45.8-49.2-53
			c-5.5-1.7-12.7-4.2-12.7-9.8c0-3,2.1-5.9,4.2-8.1c8.9-9.8,19.1-19.9,32.2-20.8c17.8-1.3,32.7,14.4,50.5,17
			c18.2,3,38.6-7.6,53.9,2.1c13.1,8.1,14.8,26.3,15.3,41.6c0,4.2,0.4,8.9,0.4,13.1c0,3.8,0,8.1-1.3,11.9
			c-3.4,7.2-11.9,10.2-19.5,12.7"/>
	</g>
</g>
<g>
	<g>
		<path class="st33" d="M3374,2047.8c-181.9,0-330-148-330-330s148-330,330-330c181.9,0,330,148,330,330S3556,2047.8,3374,2047.8z
			 M3374,1396.4c-177.3,0-321.5,144.2-321.5,321.5s144.2,321.5,321.5,321.5s321.5-144.2,321.5-321.5S3551.3,1396.4,3374,1396.4z"/>
	</g>
</g>
<g>
	<g>
		<path class="st26" d="M3469.5,1409.1"/>
	</g>
</g>
<g>
	<g>
		<path class="st26" d="M3469.5,868.8"/>
	</g>
</g>
<g>
	<g>
		<path class="st26" d="M3473.3,1200"/>
	</g>
</g>
<g>
	<g>
		<path class="st26" d="M3476.2,1200"/>
	</g>
</g>
<g>
	<g>
		<path class="st26" d="M3470.3,1242.4"/>
	</g>
</g>
<g>
	<g>
		<path class="st45" d="M3268,1987.6h-82.7l-1.3-0.8c-85.7-61.9-137-162-137-267.6c0-181.9,148-330,330-330
			c31.8,0,63.6,4.7,94.2,13.6l3,0.8V1781C3474.1,1895.1,3381.7,1987.6,3268,1987.6z M3187.9,1979.1h80.2
			c109,0,197.6-88.6,197.6-197.6v-371.1c-28.4-8.5-58.5-12.7-88.2-12.7c-177.3,0-321.5,144.2-321.5,321.5
			C3056,1821.8,3105.2,1918.9,3187.9,1979.1z"/>
	</g>
</g>
<g>
	<g>
		<g>
			<polygon class="st46" points="3470.7,1733 4080.3,1734.5 4080.3,1155.5 3466.7,1155.5 			"/>
			<path class="st47" d="M4083.6,1737.8l-616.9-1.5l-4-584.8h620.9V1737.8z M3474,1729.4l602.7,1.1v-571.7H3470L3474,1729.4z"/>
		</g>
	</g>
	<g>
		<g>
			<path class="st48" d="M4011,1668.8h-471.7v-448.4H4011V1668.8z M3546.2,1661.9h457.5v-434.1h-457.5V1661.9z"/>
		</g>
	</g>
	<g>
		<g>
			<path class="st48" d="M3949.7,1609.7h-349.1v-328.3h349.1V1609.7z M3607.5,1602.4h334.9v-314.1h-334.9V1602.4z"/>
		</g>
	</g>
	<g>
		<g>
			<rect x="3672.3" y="1347.9" class="st33" width="205.4" height="195.2"/>
			<path class="st33" d="M3881.1,1546.6h-212.7v-202.5h212.7V1546.6z M3675.7,1539.3h198.5v-188.2h-198.5V1539.3z"/>
		</g>
	</g>
	<g>
		<g>
			
				<rect x="3432.4" y="1626.6" transform="matrix(0.7207 -0.6932 0.6932 0.7207 -131.0459 2934.7971)" class="st48" width="288.9" height="6.9"/>
		</g>
	</g>
	<g>
		<g>
			
				<rect x="3574.5" y="1114.9" transform="matrix(0.7005 -0.7136 0.7136 0.7005 173.2152 2930.4202)" class="st48" width="7.3" height="287.8"/>
		</g>
	</g>
	<g>
		<g>
			
				<rect x="3970.5" y="1489.8" transform="matrix(0.6875 -0.7262 0.7262 0.6875 54.8758 3396.7976)" class="st48" width="7.3" height="289.7"/>
		</g>
	</g>
	<g>
		<g>
			
				<rect x="3803.2" y="1262.7" transform="matrix(0.72 -0.694 0.694 0.72 231.0824 3105.3359)" class="st48" width="321" height="7.3"/>
		</g>
	</g>
</g>
<g>
	<g>
		<polygon class="st49" points="3730.7,1400.5 3730.7,1294.8 3730.7,1281.3 3717.3,1281.3 3717.3,1294.8 3717.3,1350.3 
			3644.2,1281.3 3638,1281.3 3638,1294.8 3638,1400.5 3638,1414 3651.2,1414 3651.2,1400.5 3651.2,1344.4 3724.3,1414 3730.7,1414 
					"/>
		<path class="st49" d="M3507,1451.9c-2.5-2.4-6.9-2.6-8.7-5.7c-1.9-3.4-6.8-4.9-10.5-4.9h-11.3c-3.8,0-7.4,3.4-10.7,4.8
			c-3.3,1.4-6.3,3.3-8.7,5.7c-2.5,2.4-4.5,5.3-5.9,8.5c-1.4,3.2-2.1,6.8-2.1,10.6v9.5c0,0.5,0,1.1,0.1,1.6c-0.1,0.8-0.1,1.5-0.1,2.3
			v9.5c0,2.9,1,5.8,2.9,8.8c2,3,4.4,6.1,7.3,9.1c2.9,3.1,6.1,6.1,9.5,9.1c3.4,3,6.6,5.9,9.5,8.7c2.9,2.8,5.4,5.4,7.3,7.9
			c2,2.5,2.9,4.7,2.9,6.6v2.6h-12.1c-4.2,0-7.7,2.1-10.3-0.5c-2.6-2.5-17.2-19.3-17.2-23.3v13.5v13.5c0,3.7,0.7,7.2,2.1,10.4
			c1.4,3.2,3.4,6.1,5.9,8.5c2.5,2.4,5.4,4.4,8.7,5.8c3.3,1.4,6.9,2.1,10.7,2.1h11.1c4,0,7.7-0.7,11-2.1c3.3-1.4,6.2-3.4,8.6-5.9
			c2.4-2.5,4.2-5.3,5.6-8.6c1.3-3.2,2-6.6,2-10.3v-9.7c0-0.5,0-1.1-0.1-1.7c0.1-0.7,0.1-1.4,0.1-2.1v-9.7c0-3.2-1-6.4-2.9-9.8
			c-2-3.3-4.4-6.6-7.3-9.9c-2.9-3.2-6.1-6.4-9.5-9.5c-3.4-3.1-6.5-6-9.5-8.7c-2.9-2.7-5.4-5.2-7.3-7.4c-2-2.2-2.9-4.1-2.9-5.7v-5.3
			h10.5c5.1,0,9.2,1.3,11.8,3.6c2.8,2.4,4.2,5.7,4.2,9.9h13c0-3.6,0-7.8,0-13.5c0-3.6,0-7.8,0-13.5
			C3515,1453.6,3509.5,1454.3,3507,1451.9z"/>
		<polygon class="st49" points="3757.2,1294.8 3757.2,1400.5 3757.2,1414 3783.6,1414 3783.6,1400.5 3783.6,1361 3810.1,1361 
			3810.1,1347.7 3810.1,1347.6 3810.1,1334.2 3783.6,1334.2 3783.6,1308 3823.3,1308 3823.3,1294.8 3823.3,1294.5 3823.3,1281.3 
			3757.2,1281.3 		"/>
		<polygon class="st49" points="3528.1,1457.2 3528.1,1457.5 3528.1,1470.7 3554.6,1470.7 3554.6,1563.2 3554.6,1576.7 3581,1576.7 
			3581,1563.2 3581,1470.7 3607.5,1470.7 3607.5,1457.5 3607.5,1457.2 3607.5,1444 3528.1,1444 		"/>
		<path class="st49" d="M3692.3,1452.4c-2.4-2.5-5.3-4.5-8.6-6c-3.3-1.5-6.8-2.3-10.5-2.3h-25.3c-3.7,0-7.2,0.8-10.5,2.3
			c-3.3,1.5-6.1,3.6-8.6,6c-2.4,2.5-4.4,5.4-5.8,8.6c-1.4,3.2-2.1,6.5-2.1,9.9v13.5v52v13.5c0,3.6,0.7,7,2.2,10.3
			c1.5,3.2,3.5,6.1,6,8.6c2.5,2.5,5.3,4.5,8.6,5.9c3.2,1.4,6.6,2.1,10.3,2.1h25.3c3.6,0,7-0.7,10.3-2.1c3.2-1.4,6.1-3.4,8.6-5.9
			c2.5-2.5,4.5-5.3,6-8.6c1.5-3.2,2.2-6.6,2.2-10.3v-13.5v-52v-13.5c0-3.4-0.7-6.7-2.1-9.9
			C3696.6,1457.7,3694.7,1454.9,3692.3,1452.4z"/>
		<path class="st49" d="M3799.1,1451.3c-2.3-2.3-5.1-4.1-8.3-5.4c-3.2-1.3-6.9-1.9-10.9-1.9h-52.9v13.5v105.7v13.5h26.4v-13.5v-39.5
			h26.5v39.5v13.5h26.4v-13.5v-23.4v-13.5c0-4.6-0.7-8.3-2.2-11.2c-0.9-1.7-1.8-3.1-2.7-4.4c0.9-1.2,1.8-2.6,2.7-4.2
			c1.5-2.8,2.2-6.5,2.2-11v-11.4c0-0.2,0-0.5,0-0.7c0-0.4,0-0.9,0-1.3v-11.4c0-3.9-0.6-7.5-1.8-10.8
			C3803.2,1456.5,3801.4,1453.7,3799.1,1451.3z M3753.3,1496.8v-26.3h26.5v26.3H3753.3z"/>
		<path class="st49" d="M3903.4,1452.2c-2.6-2.5-5.5-4.5-8.8-6c-3.3-1.5-6.5-2.2-9.7-2.2h-24.5c-3.1,0-6.2,0.7-9.5,2.2
			c-3.2,1.5-6.1,3.4-8.7,5.9c-2.6,2.4-4.7,5.3-6.4,8.6c-1.6,3.3-2.5,6.7-2.5,10.2v13.5v78.9v13.5h26.4v-13.5v-39.5h26.1v39.5v13.5
			c0.8,0.1,2.5,0.2,4.9,0.2c2.4,0,5,0,7.8,0c2.9,0,5.6,0,8.2-0.1c2.6-0.1,4.5-0.1,5.6-0.1v-13.5v-78.9v-13.5c0-3.5-0.8-6.9-2.5-10.1
			C3908.2,1457.6,3906,1454.7,3903.4,1452.2z M3859.8,1496.8v-26.3h26.1v26.3H3859.8z"/>
		<path class="st49" d="M4001.3,1436.3c-3.3-1.5-6.7-2.3-10.2-2.3h-25.3c-3.7,0-7.2,0.8-10.5,2.3c-3.3,1.5-6.1,13.6-8.6,16.2
			c-2.4,2.5-4.3,5.4-5.7,8.7c-1.4,3.2-2.1,6.5-2.1,9.9v13.5v51.7v13.5c0,3.7,0.7,7.2,2.1,10.5c1.4,3.3,3.3,6.1,5.7,8.6
			c2.4,2.4,5.3,4.4,8.5,5.8c3.2,1.4,6.8,2.1,10.6,2.1h25.4c4,0,7.7-0.7,11-2.2c3.3-1.5,6.1-3.4,8.5-5.9c2.4-2.4,4.2-5.3,5.6-8.6
			c1.3-3.3,2-6.7,2-10.3v-13.5v-26.1v-13.5h-39.7v13.5v0v13.5h13.4v26.3h-26.5v-79.2h29.2c3.3,0,5.9,1.2,7.8,3.6
			c1.9,2.4,2.9,5.8,2.9,10.1h13c0-3.4,0-6.4,0-13.5c0-3.4,0-8.3,0-13.5c0-3.6-5.7-12.6-8.3-15.1
			C4007.5,1439.8,4004.5,1437.8,4001.3,1436.3z"/>
		<polyline class="st49" points="4111.1,1563.2 4111.1,1549.9 4071.3,1549.9 4071.3,1523.8 4097.9,1523.8 4097.9,1510.3 
			4097.9,1510.3 4097.9,1496.8 4071.3,1496.8 4071.3,1470.7 4111.1,1470.7 4111.1,1457.5 4111.1,1457.2 4111.1,1444 4045,1444 
			4045,1457.5 4045,1563.2 4045,1576.7 4111.1,1576.7 4111.1,1563.4 		"/>
	</g>
	<path class="st50" d="M3651.2,1317.4v69.6H3638v-119.2h6.2l73.1,69v-69h13.4V1387h-6.4L3651.2,1317.4z"/>
	<path class="st50" d="M3810.1,1334.1h-26.5v52.9h-26.4v-119.2h66.1v13.2h-39.7v39.7h26.5V1334.1z"/>
	<path class="st50" d="M3449.1,1467v-9.5c0-3.8,0.7-7.3,2.1-10.6c1.4-3.2,3.4-6.1,5.9-8.5c2.5-2.4,5.4-4.3,8.7-5.7
		c3.3-1.4,6.9-2.1,10.7-2.1h11.3c3.7,0,7.2,0.7,10.5,2.1c3.3,1.4,6.2,3.3,8.7,5.7c2.5,2.4,4.5,5.2,5.9,8.4c1.4,3.2,2.1,6.7,2.1,10.3
		h-13c0-4.2-1.4-7.5-4.2-9.9c-2.6-2.2-6.8-3.6-11.8-3.6h-10.5v18.8c0,1.6,1,3.5,2.9,5.7c2,2.2,4.4,4.7,7.3,7.4
		c2.9,2.7,6.1,5.6,9.5,8.7c3.4,3.1,6.5,6.2,9.5,9.5c2.9,3.2,5.4,6.5,7.3,9.9c2,3.3,2.9,6.6,2.9,9.8v9.7c0,3.6-0.7,7-2,10.3
		c-1.3,3.2-3.2,6.1-5.6,8.6c-2.4,2.5-5.2,4.5-8.6,5.9c-3.3,1.4-7,2.1-11,2.1h-11.1c-3.8,0-7.4-0.7-10.7-2.1
		c-3.3-1.4-6.3-3.4-8.7-5.8c-2.5-2.4-4.5-5.3-5.9-8.5c-1.4-3.2-2.1-6.7-2.1-10.4h13.4c0,4,1.3,7.3,3.9,9.9c2.6,2.5,6,3.8,10.3,3.8
		h12.1v-19.4c0-1.9-1-4.1-2.9-6.6c-2-2.5-4.4-5.1-7.3-7.9c-2.9-2.8-6.1-5.6-9.5-8.7c-3.4-3-6.6-6.1-9.5-9.1
		c-2.9-3.1-5.4-6.1-7.3-9.1C3450,1472.8,3449.1,1469.8,3449.1,1467z"/>
	<path class="st50" d="M3607.5,1430.6v13.2H3581v106h-26.4v-106h-26.5v-13.2H3607.5z"/>
	<path class="st50" d="M3647.9,1549.8c-3.6,0-7-0.7-10.3-2.1c-3.2-1.4-6.1-3.4-8.6-5.9c-2.5-2.5-4.5-5.3-6-8.6
		c-1.5-3.2-2.2-6.6-2.2-10.3v-65.5c0-3.4,0.7-6.7,2.1-9.9c1.4-3.2,3.4-6.1,5.8-8.6c2.4-2.5,5.3-4.5,8.6-6c3.3-1.5,6.8-2.3,10.5-2.3
		h25.3c3.7,0,7.2,0.8,10.5,2.3c3.3,1.5,6.1,3.6,8.6,6c2.4,2.5,4.4,5.4,5.8,8.6c1.4,3.2,2.1,6.5,2.1,9.9v65.5c0,3.6-0.7,7-2.2,10.3
		c-1.5,3.2-3.5,6.1-6,8.6c-2.5,2.5-5.4,4.5-8.6,5.9c-3.2,1.4-6.7,2.1-10.3,2.1H3647.9z"/>
	<path class="st50" d="M3726.9,1549.8v-119.2h52.9c4,0,7.7,0.6,10.9,1.9c3.2,1.3,6,3.1,8.3,5.4c2.3,2.3,4.1,5.1,5.3,8.4
		c1.2,3.3,1.8,6.9,1.8,10.8v11.4c0,4.6-0.7,8.2-2.2,11c-1.5,2.8-3.1,5-4.8,6.5c-1.7,1.5-4.1,2.8-7.1,3.9c3,1.4,5.3,2.9,7.1,4.7
		c1.7,1.7,3.4,4.1,4.8,7c1.5,2.9,2.2,6.7,2.2,11.2v36.9h-26.4v-52.9h-26.5v52.9H3726.9z M3753.3,1483.3h26.5v-39.7h-26.5V1483.3z"/>
	<path class="st50" d="M3860.4,1430.6h24.5c3.2,0,6.4,0.7,9.7,2.2c3.3,1.5,6.2,3.5,8.8,6c2.6,2.5,4.7,5.4,6.4,8.6
		c1.7,3.2,2.5,6.6,2.5,10.1v92.3c-1.2,0-3,0-5.6,0.1c-2.6,0.1-5.3,0.1-8.2,0.1c-2.8,0-5.4,0-7.8,0c-2.4,0-4.1-0.1-4.9-0.2v-52.9
		h-26.1v52.9h-26.4v-92.3c0-3.5,0.8-6.9,2.5-10.2c1.6-3.3,3.8-6.1,6.4-8.6c2.6-2.4,5.5-4.4,8.7-5.9
		C3854.2,1431.3,3857.3,1430.6,3860.4,1430.6z M3859.8,1483.3h26.1v-39.7h-26.1V1483.3z"/>
	<path class="st50" d="M3978.5,1496.7v-13.5h39.7v39.6c0,3.6-0.7,7-2,10.3c-1.3,3.3-3.2,6.1-5.6,8.6c-2.4,2.4-5.2,4.4-8.5,5.9
		c-3.3,1.5-6.9,2.2-11,2.2h-25.4c-3.8,0-7.3-0.7-10.6-2.1c-3.2-1.4-6.1-3.4-8.5-5.8c-2.4-2.4-4.3-5.3-5.7-8.6
		c-1.4-3.3-2.1-6.8-2.1-10.5v-65.2c0-3.4,0.7-6.7,2.1-9.9c1.4-3.2,3.3-6.1,5.7-8.7c2.4-2.5,5.3-4.6,8.6-6.1
		c3.3-1.5,6.8-2.3,10.5-2.3h25.3c3.5,0,6.9,0.8,10.2,2.3c3.3,1.5,6.2,3.6,8.7,6c2.5,2.5,4.6,5.4,6,8.6c1.5,3.2,2.2,6.5,2.2,9.9h-13
		c0-4.3-1-7.7-2.9-10.1c-1.9-2.4-4.5-3.6-7.8-3.6h-29.2v92.7h26.5v-39.7H3978.5z"/>
	<path class="st50" d="M4097.9,1496.8h-26.5v39.6h39.7v13.4H4045v-119.2h66.1v13.2h-39.7v39.6h26.5V1496.8z"/>
	<g>
		<path class="st51" d="M3634.7,1478.6c0.2,14.1,11.6,25.6,25.6,25.6c14.1,0,25.5-11.5,25.7-25.6h-0.3
			c-0.2,13.9-11.5,25.3-25.4,25.3c-13.8,0-25.1-11.3-25.3-25.3H3634.7z"/>
		<path class="st33" d="M3650.4,1470.4c1.7,0,3-3,3-6.6c0-3.7-1.3-6.6-3-6.6c-1.7,0-3,3-3,6.6
			C3647.4,1467.4,3648.7,1470.4,3650.4,1470.4z"/>
		<path class="st33" d="M3669.6,1470.4c1.7,0,3-3,3-6.6c0-3.7-1.3-6.6-3-6.6c-1.7,0-3,3-3,6.6
			C3666.6,1467.4,3667.9,1470.4,3669.6,1470.4z"/>
	</g>
	<polygon class="st49" points="3836.5,1294.5 3836.5,1294.8 3836.5,1308 3863.1,1308 3863.1,1400.5 3863.1,1414 3889.5,1414 
		3889.5,1400.5 3889.5,1308 3916,1308 3916,1294.8 3916,1294.5 3916,1281.3 3836.5,1281.3 	"/>
	<path class="st50" d="M3916,1267.8v13.2h-26.5v106h-26.4v-106h-26.5v-13.2H3916z"/>
</g>
</svg>
