<?xml version="1.0" encoding="utf-8"?>
<!-- Generator: Adobe Illustrator 25.2.1, SVG Export Plug-In . SVG Version: 6.00 Build 0)  -->
<svg version="1.1" id="Layer_1" xmlns="http://www.w3.org/2000/svg" xmlns:xlink="http://www.w3.org/1999/xlink" x="0px" y="0px"
	 viewBox="0 0 4320 2592" style="enable-background:new 0 0 4320 2592;" xml:space="preserve">
<style type="text/css">
	.st0{fill:none;}
	.st1{clip-path:url(#SVGID_2_);}
	.st2{fill:#366CAE;}
	.st3{fill:#46AED7;}
	.st4{fill:#0EA54C;}
	.st5{fill:#ED4424;}
	.st6{fill:#E2BA35;}
	.st7{fill:#FFFFFF;}
	.st8{fill:#010101;}
</style>
<rect x="-3847" y="-31.3" class="st0" width="2160" height="1080"/>
<g>
	<defs>
		<rect id="SVGID_1_" width="4320" height="2592"/>
	</defs>
	<use xlink:href="#SVGID_1_"  style="overflow:visible;fill:#366CAE;"/>
	<clipPath id="SVGID_2_">
		<use xlink:href="#SVGID_1_"  style="overflow:visible;"/>
	</clipPath>
	<g class="st1">
		<polygon class="st2" points="236.1,2402.4 2164.3,3515 4092.5,2402.4 4092.5,175.5 2164.3,-937.1 236.1,175.5 		"/>
	</g>
	<g class="st1">
		<polygon class="st3" points="236.3,2402.3 236.3,175.6 2164.3,-936.9 4092.3,175.6 4092.3,2402.3 2164.3,3514.8 		"/>
		<path d="M2164.3-927.1L4083.8,180.5v2217L2164.3,3505L244.7,2397.4v-2217L2164.3-927.1 M2164.3-946.6l-8.4,4.9L236.3,165.8
			l-8.5,4.9v9.8v2217v9.8l8.5,4.9l1919.6,1107.6l8.4,4.9l8.4-4.9l1919.6-1107.6l8.5-4.9v-9.8v-2217v-9.8l-8.5-4.9L2172.7-941.8
			L2164.3-946.6L2164.3-946.6z"/>
	</g>
	<g class="st1">
		<polygon class="st4" points="493,2253.1 493,323.2 2164.3,-641.8 3835.5,323.2 3835.5,2253.1 2164.3,3218 		"/>
		<path d="M2164.3-632l1662.8,960.1v1920.1l-1662.8,960.1L501.5,2248.2V328.1L2164.3-632 M2164.3-651.5l-8.4,4.9L493,313.4l-8.4,4.9
			v9.8v1920.1v9.8l8.4,4.9l1662.8,960.1l8.4,4.9l8.4-4.9l1662.8-960.1l8.4-4.9v-9.8V328.1v-9.8l-8.4-4.9L2172.7-646.6L2164.3-651.5
			L2164.3-651.5z"/>
	</g>
	<g class="st1">
		<polygon class="st5" points="732.7,2121.5 732.7,456.4 2164.3,-377.1 3595.9,456.4 3595.9,2121.5 2164.3,2955 		"/>
		<path d="M2164.3-367.4l1423.2,828.6v1655.5l-1423.2,828.6L741.1,2116.7V461.2L2164.3-367.4 M2164.3-386.9l-8.5,4.9L732.6,446.6
			l-8.4,4.9v9.7v1655.5v9.7l8.4,4.9l1423.2,828.6l8.5,4.9l8.5-4.9L3596,2131.3l8.4-4.9v-9.7V461.2v-9.7l-8.4-4.9L2172.8-382
			L2164.3-386.9L2164.3-386.9z"/>
	</g>
	<g class="st1">
		<polygon class="st6" points="960.1,1997.8 960.1,581.8 2164.3,-126.4 3368.5,581.8 3368.5,1997.8 2164.3,2705.9 		"/>
		<path d="M2164.3-116.6L3360,586.6v1406.4l-1195.7,703.2L968.5,1992.9V586.6L2164.3-116.6 M2164.3-136.2l-8.6,5L960,572l-8.3,4.9
			v9.7v1406.4v9.7l8.3,4.9l1195.7,703.2l8.6,5l8.6-5l1195.7-703.2l8.3-4.9v-9.7V586.6v-9.7l-8.3-4.9L2172.8-131.1L2164.3-136.2
			L2164.3-136.2z"/>
	</g>
	<g class="st1">
		<polygon class="st7" points="1167.7,1863.6 1167.7,712.7 2164.3,137.3 3160.9,712.7 3160.9,1863.6 2164.3,2439 		"/>
		<path d="M2164.3,147l988.2,570.5v1141.1l-988.2,570.5l-988.2-570.5V717.6L2164.3,147 M2164.3,127.5l-8.4,4.9L1167.7,703l-8.4,4.9
			v9.8v1141.1v9.8l8.4,4.9l988.2,570.5l8.4,4.9l8.4-4.9l988.2-570.5l8.4-4.9v-9.8V717.6v-9.8l-8.4-4.9l-988.2-570.5L2164.3,127.5
			L2164.3,127.5z"/>
	</g>
	<g class="st1">
		<g>
			<g>
				<ellipse class="st8" cx="1958.3" cy="937.7" rx="65.7" ry="146.7"/>
			</g>
		</g>
		<g>
			<g>
				<ellipse class="st8" cx="2364.9" cy="937.7" rx="64.2" ry="142.1"/>
			</g>
		</g>
		<g>
			<g>
				<path class="st8" d="M2160.1,1844c-317.9,0-577.7-262.9-577.7-583.8h27.5c0,307.2,246.1,556.3,550.2,556.3
					c302.6,0,550.2-249.1,550.2-556.3h27.5C2737.8,1581.1,2479.5,1844,2160.1,1844z"/>
			</g>
		</g>
	</g>
</g>
</svg>
